<?xml version="1.0" encoding="UTF-8"?>
<svg width="97px" height="83px" viewBox="0 0 97 83" version="1.1" xmlns="http://www.w3.org/2000/svg" xmlns:xlink="http://www.w3.org/1999/xlink">
    <!-- Generator: Sketch 48.2 (47327) - http://www.bohemiancoding.com/sketch -->
    <title>music-on</title>
    <desc>Created with Sketch.</desc>
    <defs></defs>
    <g id="flow-and-wire" stroke="none" stroke-width="1" fill="none" fill-rule="evenodd">
        <g id="music-on" fill="#000000">
            <g id="Group" transform="translate(82.000000, 11.000000)">
                <rect id="Rectangle" x="10" y="15" width="5" height="31"></rect>
                <rect id="Rectangle" x="5" y="5" width="5" height="10"></rect>
                <rect id="Rectangle" x="5" y="46" width="5" height="10"></rect>
                <rect id="Rectangle" x="0" y="56" width="5" height="5"></rect>
                <rect id="Rectangle" x="0" y="0" width="5" height="5"></rect>
            </g>
            <g id="Group-2" transform="translate(66.000000, 16.000000)">
                <rect id="Rectangle" x="11" y="10" width="5" height="31"></rect>
                <rect id="Rectangle" x="0" y="0" width="5" height="5"></rect>
                <rect id="Rectangle" x="6" y="5" width="5" height="5"></rect>
                <rect id="Rectangle" x="5" y="41" width="5" height="5"></rect>
                <rect id="Rectangle" x="1" y="46" width="5" height="5"></rect>
            </g>
            <g id="Group-3" transform="translate(56.000000, 26.000000)">
                <rect id="Rectangle" x="5" y="6" width="5" height="20"></rect>
                <rect id="Rectangle" x="0" y="26" width="5" height="5"></rect>
                <rect id="Rectangle" x="0" y="0" width="5" height="5"></rect>
            </g>
            <g id="Group-4">
                <rect id="Rectangle" x="41" y="0" width="5" height="83"></rect>
                <rect id="Rectangle" x="36" y="6" width="8" height="72"></rect>
                <rect id="Rectangle" x="31" y="11" width="8" height="61"></rect>
                <rect id="Rectangle" x="26" y="16" width="8" height="51"></rect>
                <rect id="Rectangle" x="0" y="21" width="28" height="41"></rect>
            </g>
        </g>
    </g>
</svg>